{"title":"Fame 2009 BDRip NORARS","uid":5249897,"size":1480444718,"categoryP":"video","categoryS":"movies","magnet":"?xt=urn:btih:856aacfa2d25d78f8d8780e1a1862ad656ab9242&amp;dn=Fame+2009+BDRip+NORARS&amp;tr=udp%3A%2F%2Ftracker.openbittorrent.com%3A80&amp;tr=udp%3A%2F%2Fopen.demonii.com%3A1337&amp;tr=udp%3A%2F%2Ftracker.coppersurfer.tk%3A6969&amp;tr=udp%3A%2F%2Fexodus.desync.com%3A6969","seeders":0,"leechers":1,"uploader":"IwannaFan2","files":2,"time":1262289355,"description":"Format                           : AVI\nFormat/Info                      : Audio Video Interleave\nFile size                        : 1.36 GiB\nDuration                         : 2h 2mn\nOverall bit rate                 : 1 599 Kbps\nWriting application              : Nandub v1.0rc2\nWriting library                  : Boilsoft AVI tool build 1/release\n\nVideo\nID                               : 0\nFormat                           : MPEG-4 Visual\nFormat profile                   : AdvancedSimple@L5\nFormat settings, BVOP            : Yes\nFormat settings, QPel            : No\nFormat settings, GMC             : No warppoints\nFormat settings, Matrix          : Default (H.263)\nCodec ID                         : XVID\nCodec ID/Hint                    : XviD\nDuration                         : 2h 2mn\nBit rate                         : 1 141 Kbps\nWidth                            : 640 pixels\nHeight                           : 272 pixels\nDisplay aspect ratio             : 2.35:1\nFrame rate                       : 23.976 fps\nResolution                       : 24 bits\nColorimetry                      : 4:2:0\nScan type                        : Progressive\nBits/(Pixel*Frame)               : 0.273\nStream size                      : 998 MiB (71%)\nWriting library                  : XviD 0039 build=2005.09.16 (UTC 2005-09-16)\n\nAudio\nID                               : 1\nFormat                           : AC-3\nFormat/Info                      : Audio Coding 3\nCodec ID                         : 2000\nDuration                         : 2h 2mn\nBit rate mode                    : Constant\nBit rate                         : 448 Kbps\nChannel(s)                       : 6 channels\nChannel positions                : Front: L C R, Surround: L R, LFE\nSampling rate                    : 48.0 KHz\nStream size                      : 392 MiB (28%)\nAlignment                        : Split accross interleaves\nInterleave, duration             : 42 ms (1.00 video frame)\nInterleave, preload duration     : 500 ms\n\nAn updated version of the 1980 musical, which centered on the students of the New York Academy of Performing Arts.\n","torrent":{"xt":"urn:btih:856aacfa2d25d78f8d8780e1a1862ad656ab9242","amp;dn":"Fame+2009+BDRip+NORARS","amp;tr":["udp%3A%2F%2Ftracker.openbittorrent.com%3A80","udp%3A%2F%2Fopen.demonii.com%3A1337","udp%3A%2F%2Ftracker.coppersurfer.tk%3A6969","udp%3A%2F%2Fexodus.desync.com%3A6969"],"infoHash":"856aacfa2d25d78f8d8780e1a1862ad656ab9242","infoHashBuffer":{"type":"Buffer","data":[133,106,172,250,45,37,215,143,141,135,128,225,161,134,42,214,86,171,146,66]},"announce":[],"urlList":[]}}